    
        
            <svg width="1440" height="320" viewBox="0 0 1440 320" fill="none" xmlns="http://www.w3.org/2000/svg">
<rect width="1440" height="320" fill="url(#paint0_linear)"/>
<mask id="mask0" mask-type="alpha" maskUnits="userSpaceOnUse" x="0" y="0" width="1440" height="320">
<rect width="1440" height="320" fill="white"/>
</mask>
<g mask="url(#mask0)">
<g style="mix-blend-mode:soft-light" opacity="0.1">
<mask id="mask1" mask-type="alpha" maskUnits="userSpaceOnUse" x="299" y="0" width="842" height="843">
<path fill-rule="evenodd" clip-rule="evenodd" d="M299 0.882187H1140.88V842.88H299V0.882187Z" fill="white"/>
</mask>
<g mask="url(#mask1)">
<path fill-rule="evenodd" clip-rule="evenodd" d="M720.753 1.0616C488.742 0.617937 299.622 189.035 299.176 421.081C298.732 653.125 487.129 842.268 719.139 842.712C951.15 843.158 1140.27 654.738 1140.71 422.695C1141.16 190.648 952.763 1.50527 720.753 1.0616ZM719.139 842.879C487.034 842.435 298.557 653.22 299 421.081C299.447 188.943 488.647 0.436431 720.753 0.882979C952.858 1.32665 1141.32 190.556 1140.88 422.695C1140.43 654.833 951.245 843.322 719.139 842.879Z" fill="#FEFEFE"/>
</g>
<path fill-rule="evenodd" clip-rule="evenodd" d="M720.738 8.71427C492.944 8.27924 307.267 193.268 306.832 421.097C306.394 648.922 491.36 834.617 719.154 835.052C946.947 835.49 1132.62 650.504 1133.05 422.678C1133.49 194.853 948.531 9.15217 720.738 8.71427ZM719.154 835.409C663.334 835.3 609.209 824.254 558.284 802.604C509.09 781.674 464.928 751.775 427.032 713.724C389.129 675.684 359.402 631.4 338.674 582.113C317.214 531.097 306.383 476.915 306.489 421.094C306.599 365.27 317.634 311.136 339.29 260.201C360.209 211 390.103 166.832 428.152 128.931C466.193 91.0231 510.47 61.2945 559.744 40.5603C610.753 19.0972 664.922 8.26772 720.738 8.37431C776.551 8.48091 830.683 19.5207 881.611 41.1768C930.81 62.1012 974.972 91.9997 1012.86 130.051C1050.76 168.1 1080.49 212.38 1101.23 261.662C1122.68 312.678 1133.51 366.854 1133.41 422.681C1133.3 478.5 1122.26 532.638 1100.61 583.574C1079.68 632.78 1049.79 676.948 1011.74 714.844C973.705 752.752 929.431 782.48 880.15 803.22C829.139 824.678 774.964 835.516 719.154 835.409Z" fill="#FEFEFE"/>
<path fill-rule="evenodd" clip-rule="evenodd" d="M720.723 16.3738C497.155 15.9446 314.918 197.508 314.491 421.11C314.062 644.704 495.6 826.961 719.168 827.391C942.733 827.82 1124.96 646.26 1125.39 422.663C1125.82 199.064 944.285 16.8031 720.723 16.3738ZM719.168 827.909C664.362 827.806 611.216 816.965 561.207 795.695C512.903 775.15 469.545 745.796 432.326 708.436C395.118 671.082 365.929 627.602 345.578 579.211C324.501 529.111 313.869 475.92 313.973 421.11C314.079 366.297 324.916 313.141 346.183 263.127C366.718 214.817 396.077 171.45 433.426 134.231C470.787 97.0146 514.26 67.819 562.639 47.4651C612.731 26.3909 665.921 15.7516 720.723 15.8582C775.528 15.9619 828.669 26.8029 878.684 48.073C926.988 68.6113 970.348 97.9711 1007.56 135.331C1044.77 172.694 1073.95 216.171 1094.31 264.562C1115.38 314.656 1126.02 367.853 1125.91 422.666C1125.81 477.479 1114.97 530.627 1093.7 580.646C1073.16 628.959 1043.81 672.323 1006.46 709.537C969.104 746.756 925.634 775.943 877.249 796.302C827.154 817.377 773.973 828.016 719.168 827.909Z" fill="#FEFEFE"/>
<path fill-rule="evenodd" clip-rule="evenodd" d="M720.709 24.0303C501.364 23.6097 322.565 201.748 322.145 421.123C321.724 640.499 499.84 819.323 719.185 819.744C938.527 820.164 1117.33 642.026 1117.75 422.65C1118.17 203.274 940.051 24.4509 720.709 24.0303ZM719.182 820.423C665.391 820.32 613.227 809.689 564.134 788.817C516.723 768.653 474.163 739.832 437.638 703.154C401.106 666.491 372.459 623.804 352.483 576.315C331.792 527.134 321.361 474.931 321.462 421.123C321.566 367.325 332.198 315.151 353.076 266.053C373.237 218.633 402.048 176.067 438.718 139.539C475.381 103.003 518.054 74.3519 565.542 54.3725C614.713 33.6786 666.917 23.2495 720.709 23.3504C774.509 23.4541 826.667 34.0848 875.76 54.9659C923.165 75.1268 965.737 103.942 1002.25 140.62C1038.78 177.288 1067.44 219.964 1087.42 267.459C1108.1 316.64 1118.53 368.851 1118.43 422.65C1118.32 476.458 1107.69 528.623 1086.82 577.72C1066.66 625.132 1037.85 667.713 1001.17 704.235C964.515 740.771 921.834 769.431 874.351 789.41C825.18 810.095 772.982 820.527 719.182 820.423Z" fill="#FEFEFE"/>
<path fill-rule="evenodd" clip-rule="evenodd" d="M720.694 31.6898C505.566 31.2779 330.216 205.985 329.804 421.14C329.392 636.295 504.071 811.673 719.199 812.085C934.324 812.497 1109.67 637.79 1110.09 422.635C1110.5 207.48 935.819 32.1018 720.694 31.6898ZM719.196 812.926C666.41 812.826 615.226 802.399 567.066 781.907C520.542 762.129 478.78 733.853 442.94 697.873C407.103 661.89 378.984 620.021 359.387 573.415C339.091 525.162 328.848 473.939 328.948 421.137C329.049 368.344 339.488 317.152 359.969 268.985C379.747 222.455 408.025 180.687 444 144.842C479.975 109 521.85 80.8763 568.446 61.2772C616.683 40.978 667.911 30.7334 720.697 30.8342C773.489 30.935 824.667 41.3756 872.836 61.8592C919.357 81.6398 961.113 109.922 996.953 145.902C1032.79 181.883 1060.9 223.763 1080.5 270.365C1100.8 318.61 1111.03 369.845 1110.93 422.638C1110.83 475.437 1100.4 526.623 1079.92 574.798C1060.14 621.326 1031.87 663.088 995.893 698.933C959.915 734.775 918.052 762.89 871.453 782.492C823.207 802.797 771.988 813.027 719.196 812.926Z" fill="#FEFEFE"/>
<path fill-rule="evenodd" clip-rule="evenodd" d="M720.679 39.3529C509.78 38.9496 337.869 210.225 337.466 421.154C337.063 632.092 508.314 804.018 719.213 804.422C930.118 804.825 1102.02 633.558 1102.43 422.62C1102.83 211.691 931.584 39.7562 720.679 39.3529ZM719.21 805.456C616.769 805.26 520.536 765.174 448.243 692.589C375.944 620 336.236 523.606 336.432 421.151C336.628 318.696 376.708 222.449 449.283 150.146C521.855 77.8367 618.239 38.1227 720.682 38.3187C823.123 38.5146 919.348 78.6001 991.647 151.186C1063.95 223.768 1103.66 320.168 1103.46 422.623C1103.26 525.079 1063.18 621.317 990.61 693.629C918.031 765.938 821.651 805.652 719.21 805.456Z" fill="#FEFEFE"/>
<path fill-rule="evenodd" clip-rule="evenodd" d="M720.665 47.0125C513.988 46.6149 345.52 214.465 345.125 421.168C344.728 627.873 512.551 796.366 719.227 796.763C925.904 797.158 1094.37 629.311 1094.76 422.605C1095.16 215.903 927.341 47.4101 720.665 47.0125ZM719.224 797.959C618.786 797.766 524.433 758.461 453.546 687.307C382.664 616.136 343.737 521.621 343.93 421.168C344.123 320.715 383.413 226.346 454.566 155.449C525.724 84.56 620.229 45.6239 720.668 45.8169C821.106 46.0099 915.459 85.3061 986.346 156.469C1057.22 227.64 1096.16 322.155 1095.96 422.608C1095.77 523.061 1056.47 617.427 985.326 688.324C914.168 759.21 819.663 798.149 719.224 797.959Z" fill="#FEFEFE"/>
<path fill-rule="evenodd" clip-rule="evenodd" d="M720.65 54.6755C518.199 54.2866 353.173 218.703 352.787 421.185C352.398 623.669 516.791 788.725 719.241 789.114C921.701 789.5 1086.73 625.078 1087.12 422.59C1087.51 220.111 923.109 55.0645 720.65 54.6755ZM719.239 790.474C620.799 790.284 528.322 751.771 458.857 682.02C389.381 612.269 351.223 519.635 351.413 421.182C351.6 322.728 390.113 230.241 459.857 160.761C529.589 91.2751 622.213 53.1112 720.653 53.3013C819.093 53.4886 911.567 92.0098 981.043 161.761C1050.52 231.505 1088.67 324.14 1088.48 422.593C1088.29 521.047 1049.78 613.534 980.043 683.02C910.299 752.506 817.678 790.664 719.239 790.474Z" fill="#FEFEFE"/>
<path fill-rule="evenodd" clip-rule="evenodd" d="M720.635 62.3282C522.402 61.9479 360.818 222.936 360.437 421.197C360.057 619.453 521.025 781.06 719.256 781.44C917.483 781.82 1079.06 620.833 1079.44 422.577C1079.83 224.316 918.863 62.7085 720.635 62.3282ZM719.256 782.99C520.169 782.609 358.519 620.308 358.902 421.194C359.282 222.083 521.555 60.4095 720.638 60.7927C919.724 61.173 1081.38 223.466 1081 422.58C1080.62 621.691 918.339 783.373 719.256 782.99Z" fill="#FEFEFE"/>
<path fill-rule="evenodd" clip-rule="evenodd" d="M720.621 69.9913C526.61 69.6196 368.471 227.176 368.099 421.214C367.728 615.249 525.262 773.419 719.273 773.791C913.28 774.162 1071.43 616.597 1071.8 422.562C1072.17 228.524 914.631 70.3629 720.621 69.9913ZM719.27 775.505C524.314 775.133 366.011 616.2 366.385 421.208C366.757 226.228 525.668 67.9026 720.624 68.2771C915.585 68.6487 1073.89 227.582 1073.52 422.565C1073.14 617.554 914.231 775.879 719.27 775.505Z" fill="#FEFEFE"/>
<path fill-rule="evenodd" clip-rule="evenodd" d="M720.606 77.6442C530.821 77.2812 376.116 231.415 375.753 421.227C375.387 611.047 529.502 765.765 719.287 766.131C909.077 766.494 1063.77 612.366 1064.14 422.546C1064.5 232.735 910.396 78.0072 720.606 77.6442ZM719.284 768.007C528.459 767.641 373.509 612.075 373.875 421.224C374.24 230.372 529.784 75.4 720.609 75.7658C911.433 76.1317 1066.38 231.7 1066.02 422.552C1065.65 613.403 910.108 768.373 719.284 768.007Z" fill="#FEFEFE"/>
<path fill-rule="evenodd" clip-rule="evenodd" d="M720.591 85.307C535.024 84.9526 383.769 235.649 383.415 421.243C383.058 606.843 533.733 758.113 719.301 758.467C904.874 758.825 1056.12 608.134 1056.48 422.531C1056.83 236.94 906.165 85.6642 720.591 85.307ZM719.298 760.533C532.601 760.176 380.998 607.966 381.358 421.238C381.715 234.517 533.9 82.8956 720.594 83.2529C907.297 83.6101 1058.9 235.814 1058.55 422.537C1058.19 609.266 906 760.893 719.298 760.533Z" fill="#FEFEFE"/>
<path fill-rule="evenodd" clip-rule="evenodd" d="M720.577 92.9666C539.235 92.618 391.419 239.889 391.071 421.257C390.725 602.624 537.973 750.46 719.315 750.809C900.66 751.155 1048.47 603.886 1048.82 422.519C1049.16 241.148 901.918 93.3152 720.577 92.9666ZM719.312 753.036C536.74 752.687 388.493 603.843 388.844 421.254C389.193 238.653 538.008 90.3881 720.582 90.7367C903.146 91.0882 1051.4 239.924 1051.05 422.522C1050.7 605.113 901.875 753.387 719.312 753.036Z" fill="#FEFEFE"/>
<path fill-rule="evenodd" clip-rule="evenodd" d="M720.562 100.623C543.443 100.283 399.067 244.129 398.727 421.27C398.387 598.408 542.213 742.805 719.329 743.144C896.439 743.484 1040.82 599.639 1041.16 422.503C1041.5 245.359 897.669 100.963 720.562 100.623ZM719.326 745.539C540.879 745.199 395.991 599.734 396.333 421.267C396.676 242.801 542.121 97.8861 720.568 98.2289C899.009 98.5717 1043.89 244.04 1043.55 422.509C1043.21 600.975 897.767 745.881 719.326 745.539Z" fill="#FEFEFE"/>
<path fill-rule="evenodd" clip-rule="evenodd" d="M720.547 108.283C547.645 107.951 406.717 248.363 406.386 421.287C406.055 594.201 546.444 735.166 719.346 735.5C892.236 735.829 1033.18 595.403 1033.51 422.488C1033.84 249.567 893.438 108.614 720.547 108.283ZM719.34 738.056C545.024 737.722 403.483 595.627 403.817 421.281C404.151 246.94 546.237 105.379 720.553 105.713C894.872 106.047 1036.4 248.153 1036.07 422.494C1035.74 596.84 893.659 738.39 719.34 738.056Z" fill="#FEFEFE"/>
<path fill-rule="evenodd" clip-rule="evenodd" d="M720.533 115.939C551.859 115.616 414.365 252.605 414.04 421.299C413.717 589.997 550.687 727.499 719.36 727.821C888.033 728.147 1025.52 591.172 1025.84 422.475C1026.16 253.778 889.206 116.261 720.533 115.939ZM719.354 730.573C549.169 730.244 410.98 591.506 411.306 421.297C411.631 251.084 550.353 112.876 720.538 113.202C890.724 113.53 1028.91 252.268 1028.59 422.478C1028.26 592.69 889.54 730.898 719.354 730.573Z" fill="#FEFEFE"/>
<path fill-rule="evenodd" clip-rule="evenodd" d="M720.518 123.598C556.07 123.284 422.015 256.842 421.699 421.316C421.385 585.795 554.927 719.86 719.374 720.177C883.83 720.491 1017.87 586.939 1018.19 422.46C1018.5 257.986 884.974 123.912 720.518 123.598ZM719.368 723.087C553.314 722.77 418.469 587.397 418.789 421.31C419.106 255.229 554.466 120.369 720.524 120.689C886.587 121.005 1021.42 256.384 1021.1 422.465C1020.79 588.552 885.432 723.407 719.368 723.087Z" fill="#FEFEFE"/>
<path fill-rule="evenodd" clip-rule="evenodd" d="M720.503 131.261C560.273 130.953 429.669 261.077 429.361 421.33C429.055 581.577 559.158 712.205 719.388 712.514C879.613 712.819 1010.22 582.692 1010.53 422.445C1010.84 262.189 880.728 131.57 720.503 131.261ZM719.383 715.59C557.45 715.279 425.962 583.274 426.273 421.324C426.581 259.369 558.576 127.862 720.509 128.17C882.436 128.481 1013.92 260.495 1013.61 422.451C1013.3 584.401 881.31 715.902 719.383 715.59Z" fill="#FEFEFE"/>
<path fill-rule="evenodd" clip-rule="evenodd" d="M720.488 138.921C564.481 138.621 437.319 265.317 437.02 421.344C436.72 577.373 563.398 704.556 719.402 704.852C875.41 705.152 1002.57 578.459 1002.87 422.43C1003.17 266.4 876.496 139.221 720.488 138.921ZM719.397 708.119C561.6 707.817 433.465 579.165 433.768 421.338C434.07 263.519 562.698 135.366 720.494 135.668C878.299 135.971 1006.44 264.617 1006.13 422.435C1005.83 580.263 877.202 708.422 719.397 708.119Z" fill="#FEFEFE"/>
<path fill-rule="evenodd" clip-rule="evenodd" d="M720.474 146.584C568.692 146.293 444.973 269.555 444.682 421.361C444.391 573.158 567.635 696.901 719.419 697.192C871.195 697.483 994.921 574.212 995.212 422.415C995.503 270.612 872.25 146.875 720.474 146.584ZM719.411 700.62C565.739 700.323 440.96 575.042 441.254 421.352C441.548 267.659 566.808 142.862 720.479 143.156C874.148 143.449 998.933 268.725 998.639 422.421C998.343 576.111 873.079 700.914 719.411 700.62Z" fill="#FEFEFE"/>
<path fill-rule="evenodd" clip-rule="evenodd" d="M720.459 154.237C572.9 153.954 452.617 273.796 452.332 421.373C452.05 568.953 571.875 689.261 719.434 689.544C866.992 689.829 987.278 569.978 987.563 422.401C987.846 274.822 868.018 154.519 720.459 154.237ZM719.428 693.133C569.881 692.848 448.458 570.932 448.743 421.367C449.031 271.803 570.921 150.359 720.465 150.647C870.011 150.932 991.441 272.843 991.155 422.407C990.867 571.972 868.971 693.421 719.428 693.133Z" fill="#FEFEFE"/>
<path fill-rule="evenodd" clip-rule="evenodd" d="M720.444 161.9C577.103 161.626 460.271 278.028 459.994 421.39C459.72 564.749 576.106 681.606 719.448 681.883C862.789 682.156 979.63 565.746 979.904 422.387C980.177 279.025 863.786 162.173 720.444 161.9ZM719.442 685.637C574.026 685.357 455.947 566.823 456.226 421.381C456.506 275.948 575.037 157.852 720.453 158.131C865.872 158.408 983.937 276.959 983.66 422.393C983.381 567.835 864.861 685.916 719.442 685.637Z" fill="#FEFEFE"/>
<path fill-rule="evenodd" clip-rule="evenodd" d="M720.43 169.559C581.314 169.294 467.921 282.268 467.653 421.403C467.388 560.548 580.346 673.956 719.462 674.221C858.586 674.489 971.976 561.513 972.241 422.371C972.509 283.236 859.554 169.827 720.43 169.559ZM719.456 678.165C578.171 677.895 463.439 562.7 463.71 421.395C463.98 280.093 579.153 165.344 720.438 165.615C861.72 165.886 976.461 281.075 976.19 422.38C975.92 563.682 860.738 678.436 719.456 678.165Z" fill="#FEFEFE"/>
<path fill-rule="evenodd" clip-rule="evenodd" d="M720.415 177.216C585.522 176.956 475.569 286.508 475.309 421.42C475.05 556.329 584.586 666.301 719.476 666.56C854.369 666.816 964.325 557.268 964.584 422.356C964.841 287.444 855.308 177.475 720.415 177.216ZM719.47 670.668C582.304 670.406 470.937 558.593 471.199 421.411C471.461 284.226 583.258 172.842 720.424 173.105C857.584 173.37 968.954 285.179 968.692 422.365C968.43 559.547 856.63 670.933 719.47 670.668Z" fill="#FEFEFE"/>
<path fill-rule="evenodd" clip-rule="evenodd" d="M720.4 184.875C589.727 184.625 483.219 290.742 482.968 421.433C482.718 552.125 588.817 658.648 719.493 658.899C850.163 659.149 956.671 553.035 956.922 422.341C957.173 291.649 851.07 185.126 720.4 184.875ZM719.484 663.171C586.449 662.917 478.426 554.473 478.682 421.425C478.938 288.371 587.374 180.335 720.409 180.588C853.435 180.845 961.45 289.295 961.197 422.349C960.94 555.397 852.511 663.427 719.484 663.171Z" fill="#FEFEFE"/>
<path fill-rule="evenodd" clip-rule="evenodd" d="M720.386 192.531C593.938 192.289 490.864 294.984 490.622 421.449C490.38 547.92 593.06 650.995 719.507 651.237C845.96 651.479 949.02 548.799 949.262 422.328C949.504 295.863 846.839 192.773 720.386 192.531ZM719.498 655.702C590.594 655.454 485.926 550.363 486.171 421.44C486.419 292.515 591.49 187.833 720.394 188.08C849.299 188.328 953.975 293.414 953.727 422.336C953.479 551.259 848.403 655.947 719.498 655.702Z" fill="#FEFEFE"/>
<path fill-rule="evenodd" clip-rule="evenodd" d="M720.371 200.191C598.149 199.958 498.514 299.224 498.281 421.463C498.047 543.701 597.3 643.342 719.521 643.575C841.743 643.812 941.366 544.551 941.6 422.312C941.836 300.074 842.592 200.424 720.371 200.191ZM719.512 648.202C594.736 647.963 493.416 546.24 493.655 421.454C493.894 296.66 595.606 195.325 720.38 195.564C845.147 195.803 946.465 297.527 946.229 422.321C945.987 547.107 844.28 648.444 719.512 648.202Z" fill="#FEFEFE"/>
<path fill-rule="evenodd" clip-rule="evenodd" d="M720.356 207.854C602.352 207.626 506.17 303.456 505.943 421.477C505.718 539.498 601.531 635.701 719.535 635.926C837.54 636.154 933.73 540.319 933.957 422.298C934.182 304.277 838.361 208.082 720.356 207.854ZM719.527 640.717C598.881 640.484 500.91 542.131 501.141 421.468C501.371 300.805 599.719 202.821 720.365 203.051C841.011 203.282 938.975 301.643 938.745 422.306C938.511 542.969 840.173 640.948 719.527 640.717Z" fill="#FEFEFE"/>
<path fill-rule="evenodd" clip-rule="evenodd" d="M720.342 215.507C606.56 215.288 513.812 307.695 513.596 421.492C513.377 535.281 605.771 628.036 719.55 628.255C833.325 628.471 926.062 536.073 926.281 422.282C926.5 308.487 834.115 215.726 720.342 215.507ZM719.541 633.234C603.02 633.009 508.409 538.021 508.63 421.484C508.855 304.943 603.829 210.318 720.35 210.543C836.874 210.765 931.486 305.753 931.261 422.293C931.039 538.831 836.065 633.455 719.541 633.234Z" fill="#FEFEFE"/>
<path fill-rule="evenodd" clip-rule="evenodd" d="M720.327 223.17C610.771 222.959 521.466 311.935 521.255 421.506C521.045 531.077 610.008 620.396 719.567 620.606C829.122 620.816 918.425 531.841 918.635 422.27C918.846 312.695 829.883 223.38 720.327 223.17ZM719.555 625.748C607.162 625.532 515.898 533.898 516.114 421.497C516.33 309.088 607.945 217.811 720.336 218.027C832.723 218.24 923.993 309.869 923.777 422.278C923.564 534.678 831.943 625.964 719.555 625.748Z" fill="#FEFEFE"/>
<path fill-rule="evenodd" clip-rule="evenodd" d="M720.312 230.83C614.982 230.628 529.116 316.175 528.915 421.52C528.713 526.873 614.248 612.743 719.581 612.945C824.919 613.146 910.771 527.608 910.973 422.255C911.175 316.907 825.651 231.031 720.312 230.83ZM719.569 618.251C611.307 618.044 523.404 529.789 523.611 421.511C523.819 313.234 612.059 225.315 720.321 225.523C828.586 225.73 916.489 313.985 916.282 422.263C916.074 530.541 827.832 618.459 719.569 618.251Z" fill="#FEFEFE"/>
<path fill-rule="evenodd" clip-rule="evenodd" d="M720.298 238.492C619.185 238.299 536.772 320.407 536.576 421.537C536.383 522.67 618.482 605.102 719.595 605.295C820.716 605.488 903.135 523.372 903.328 422.24C903.523 321.109 821.419 238.685 720.298 238.492ZM719.583 610.766C615.452 610.567 530.893 525.68 531.095 421.525C531.294 317.379 616.175 232.808 720.309 233.007C824.447 233.209 908.999 318.102 908.798 422.248C908.599 526.403 823.724 610.965 719.583 610.766Z" fill="#FEFEFE"/>
<path fill-rule="evenodd" clip-rule="evenodd" d="M720.283 246.145C623.393 245.961 544.414 324.648 544.23 421.549C544.043 518.453 622.719 597.437 719.609 597.622C816.499 597.809 895.466 519.127 895.654 422.223C895.838 325.32 817.173 246.33 720.283 246.145ZM719.597 603.283C619.591 603.09 538.391 521.556 538.584 421.541C538.774 321.523 620.288 240.306 720.295 240.499C820.298 240.689 901.507 322.217 901.317 422.235C901.124 522.253 819.601 603.476 719.597 603.283Z" fill="#FEFEFE"/>
<path fill-rule="evenodd" clip-rule="evenodd" d="M720.268 253.808C627.604 253.63 552.067 328.886 551.892 421.566C551.713 514.249 626.959 589.797 719.623 589.972C812.296 590.151 887.83 514.895 888.008 422.209C888.187 329.531 812.941 253.987 720.268 253.808ZM719.612 595.798C623.735 595.616 545.883 517.45 546.067 421.555C546.249 325.662 624.404 247.799 720.28 247.983C816.159 248.167 894.017 326.331 893.833 422.22C893.648 518.118 815.493 595.982 719.612 595.798Z" fill="#FEFEFE"/>
<path fill-rule="evenodd" clip-rule="evenodd" d="M720.254 261.468C631.806 261.298 559.718 333.12 559.548 421.58C559.381 510.034 631.19 582.144 719.637 582.314C808.076 582.484 880.176 510.647 880.346 422.196C880.516 333.734 808.692 261.638 720.254 261.468ZM719.629 588.298C627.875 588.122 553.372 513.329 553.548 421.568C553.724 329.801 628.511 255.294 720.265 255.47C812.011 255.646 886.51 330.441 886.334 422.208C886.159 513.966 811.374 588.473 719.629 588.298Z" fill="#FEFEFE"/>
<path fill-rule="evenodd" clip-rule="evenodd" d="M720.239 269.124C636.015 268.963 567.365 337.362 567.204 421.596C567.043 505.826 635.43 574.488 719.654 574.649C803.873 574.81 872.528 506.411 872.689 422.18C872.85 337.947 804.457 269.285 720.239 269.124ZM719.643 580.829C632.016 580.659 560.873 509.22 561.043 421.581C561.21 333.946 632.627 262.792 720.25 262.962C807.874 263.129 879.032 334.556 878.865 422.192C878.695 509.828 807.266 580.996 719.643 580.829Z" fill="#FEFEFE"/>
<path fill-rule="evenodd" clip-rule="evenodd" d="M720.224 276.784C640.229 276.631 575.016 341.602 574.863 421.609C574.711 501.622 639.673 566.838 719.668 566.991C799.67 567.143 864.874 502.178 865.026 422.165C865.179 342.158 800.226 276.936 720.224 276.784ZM719.657 573.329C636.161 573.17 568.365 505.111 568.526 421.598C568.685 338.09 636.743 270.284 720.236 270.446C803.737 270.604 871.528 338.672 871.367 422.177C871.208 505.69 803.158 573.49 719.657 573.329Z" fill="#FEFEFE"/>
<path fill-rule="evenodd" clip-rule="evenodd" d="M720.495 284.44C644.716 284.296 582.949 345.836 582.805 421.625C582.658 497.406 644.189 559.182 719.968 559.329C795.74 559.473 857.508 497.933 857.652 422.152C857.799 346.363 796.267 284.587 720.495 284.44ZM719.956 565.834C640.591 565.681 576.148 500.987 576.3 421.611C576.453 342.235 641.144 277.782 720.506 277.935C799.871 278.087 864.309 342.788 864.156 422.164C864.003 501.54 799.321 565.984 719.956 565.834Z" fill="#FEFEFE"/>
<path fill-rule="evenodd" clip-rule="evenodd" d="M721.195 292.099C649.642 291.961 591.314 350.076 591.176 421.639C591.04 493.201 649.144 551.532 720.697 551.667C792.252 551.806 850.569 493.7 850.704 422.137C850.843 350.571 792.748 292.238 721.195 292.099ZM720.685 558.363C645.451 558.219 584.355 496.878 584.499 421.627C584.643 346.379 645.972 285.274 721.206 285.418C796.449 285.563 857.546 346.904 857.402 422.148C857.258 497.402 795.925 558.507 720.685 558.363Z" fill="#FEFEFE"/>
<path fill-rule="evenodd" clip-rule="evenodd" d="M722.18 299.762C654.85 299.633 599.967 354.313 599.838 421.653C599.711 488.986 654.384 543.877 721.714 544.007C789.035 544.134 843.918 489.453 844.047 422.122C844.177 354.783 789.504 299.892 722.18 299.762ZM721.699 550.863C650.587 550.728 592.844 492.755 592.979 421.641C593.117 350.519 651.083 292.768 722.195 292.903C793.298 293.041 851.041 351.012 850.906 422.134C850.768 493.25 792.805 551.002 721.699 550.863Z" fill="#FEFEFE"/>
<path fill-rule="evenodd" clip-rule="evenodd" d="M723.166 307.415C660.053 307.294 608.612 358.547 608.491 421.668C608.37 484.781 659.615 536.238 722.728 536.359C785.832 536.48 837.281 485.222 837.402 422.106C837.523 358.984 786.27 307.536 723.166 307.415ZM722.713 543.38C655.732 543.253 601.341 488.645 601.471 421.654C601.598 354.663 656.199 300.265 723.18 300.395C790.161 300.521 844.552 355.13 844.422 422.121C844.295 489.111 789.695 543.509 722.713 543.38Z" fill="#FEFEFE"/>
<path fill-rule="evenodd" clip-rule="evenodd" d="M724.151 315.079C665.264 314.966 617.265 362.787 617.153 421.682C617.041 480.578 664.855 528.583 723.742 528.695C782.629 528.811 830.627 480.987 830.74 422.091C830.852 363.196 783.038 315.191 724.151 315.079ZM723.727 535.883C660.877 535.762 609.833 484.522 609.952 421.668C610.073 358.808 661.312 307.758 724.165 307.879C787.01 307.997 838.042 359.246 837.924 422.106C837.803 484.96 786.572 536.004 723.727 535.883Z" fill="#FEFEFE"/>
<path fill-rule="evenodd" clip-rule="evenodd" d="M725.136 322.738C670.472 322.634 625.916 367.027 625.812 421.699C625.705 476.373 670.092 520.93 724.756 521.037C779.426 521.141 823.973 476.754 824.077 422.076C824.184 367.407 779.806 322.842 725.136 322.738ZM724.741 528.409C666.016 528.297 618.337 480.415 618.449 421.684C618.562 362.95 666.425 315.265 725.151 315.38C783.873 315.492 831.567 363.357 831.454 422.091C831.339 480.825 783.464 528.522 724.741 528.409Z" fill="#FEFEFE"/>
</g>
</g>
<defs>
<linearGradient id="paint0_linear" x1="1430.99" y1="320" x2="1430.99" y2="4.0051" gradientUnits="userSpaceOnUse">
<stop stop-color="#35499C"/>
<stop offset="1" stop-color="#2C3771"/>
</linearGradient>
</defs>
</svg>