<svg width="16" height="16" viewBox="0 0 16 16" fill="none" xmlns="http://www.w3.org/2000/svg">
<g opacity="0.7">
<path fill-rule="evenodd" clip-rule="evenodd" d="M0.0820923 2.16068C0.0820923 1.84613 0.328247 1.59998 0.642761 1.59998V1.61365L11.7607 1.61365C12.0068 0.724762 12.8274 0.0683594 13.7983 0.0683594C14.9607 0.0683594 15.918 0.99826 15.918 2.17435C15.918 3.3504 14.9607 4.29401 13.7983 4.29401C12.8137 4.29401 11.9932 3.6239 11.747 2.72134L0.642761 2.72134C0.328247 2.72134 0.0820923 2.47519 0.0820923 2.16068ZM14.7966 2.16068C14.7966 1.61368 14.3453 1.16238 13.7983 1.16238C13.2513 1.16238 12.8 1.61368 12.8 2.16068C12.8 2.70767 13.2513 3.15897 13.7983 3.15897C14.3453 3.15897 14.7966 2.70767 14.7966 2.16068Z" fill="white"/>
<path fill-rule="evenodd" clip-rule="evenodd" d="M15.3573 7.42566C15.6718 7.42566 15.918 7.67181 15.918 7.98636C15.918 8.30087 15.6718 8.54703 15.3573 8.54703H9.61371C9.36755 9.44962 8.54706 10.1197 7.56244 10.1197C6.57782 10.1197 5.75726 9.44962 5.51111 8.54703H0.629089C0.314575 8.54703 0.0684204 8.30087 0.0684204 7.98636C0.0684204 7.67181 0.314575 7.42566 0.629089 7.42566H5.51111C5.75726 6.53677 6.57782 5.88037 7.54877 5.88037C8.51965 5.88037 9.34021 6.53677 9.58636 7.42566H15.3573ZM6.55048 8.0137C6.55048 8.5607 7.00177 9.01199 7.54877 9.01199C8.10944 9.01199 8.54706 8.5607 8.54706 8.0137C8.54706 7.46671 8.09576 7.01541 7.54877 7.01541C7.00177 7.01541 6.55048 7.46671 6.55048 8.0137Z" fill="white"/>
<path fill-rule="evenodd" clip-rule="evenodd" d="M15.3573 14.3727H4.23932C3.99316 15.2752 3.17267 15.9453 2.20172 15.9316C1.02563 15.9316 0.0820923 14.988 0.0820923 13.812C0.0820923 12.6359 1.03931 11.6923 2.20172 11.6923C3.17267 11.6923 3.99316 12.3487 4.23932 13.2513H15.3573C15.6718 13.2513 15.918 13.4974 15.918 13.812C15.918 14.1265 15.6718 14.3727 15.3573 14.3727ZM2.20172 12.8274C1.65472 12.8274 1.20343 13.2787 1.20343 13.8257C1.20343 14.3727 1.65472 14.8239 2.20172 14.8239C2.74872 14.8239 3.20001 14.3727 3.20001 13.8257C3.20001 13.2787 2.74872 12.8274 2.20172 12.8274Z" fill="white"/>
</g>
</svg>
