<svg width="13" height="16" viewBox="0 0 13 16" fill="none" xmlns="http://www.w3.org/2000/svg">
<path fill-rule="evenodd" clip-rule="evenodd" d="M12.9678 13.6435C12.9794 13.6768 12.9828 13.71 12.9875 13.7445C12.9904 13.767 13.0005 13.787 13 13.8105C13 13.8152 12.9988 13.8193 12.9976 13.8235C12.9965 13.8272 12.9953 13.831 12.9951 13.8352C12.9935 13.8638 12.9868 13.8906 12.98 13.9182L12.975 13.9385C12.9669 13.968 12.962 13.9983 12.949 14.0252C12.9398 14.0453 12.9269 14.0628 12.9139 14.0804C12.9094 14.0864 12.905 14.0924 12.9006 14.0985L12.894 14.1079C12.8751 14.1346 12.8567 14.1606 12.8332 14.1825C12.83 14.1853 12.8279 14.1886 12.8256 14.1919C12.8235 14.1951 12.8212 14.1982 12.818 14.2007C11.4227 15.361 9.66034 16 7.85547 16C3.52386 16 0 12.4113 0 8.00024C0 3.58875 3.52386 0 7.85547 0C7.86993 0 7.88171 0.00674438 7.89569 0.00775146C7.93567 0.011261 7.97369 0.0182495 8.01172 0.0314941C8.03845 0.0402527 8.06201 0.0517578 8.08582 0.0650024C8.11597 0.0815125 8.14294 0.0994873 8.16943 0.122253C8.19495 0.144012 8.2168 0.168762 8.23761 0.195251C8.24817 0.209503 8.26312 0.217743 8.27271 0.233246C8.27679 0.239685 8.27869 0.246674 8.28058 0.253571C8.28198 0.258759 8.28339 0.263916 8.28571 0.268738C8.29785 0.291443 8.30707 0.314606 8.31482 0.338837C8.3183 0.349823 8.32147 0.361023 8.32446 0.372498C8.33234 0.401001 8.33893 0.428253 8.34137 0.456757C8.3429 0.472992 8.35046 0.487244 8.35046 0.503998C8.35046 0.51828 8.34686 0.531128 8.3432 0.544067C8.34094 0.552216 8.33862 0.560394 8.33722 0.569C8.33405 0.595245 8.33014 0.619751 8.32227 0.645508C8.31549 0.669159 8.30701 0.691437 8.29694 0.713013C8.28992 0.728119 8.28204 0.742859 8.27344 0.757507C8.26288 0.776245 8.25189 0.793488 8.23889 0.81076C8.21063 0.846985 8.17853 0.877258 8.14172 0.904236C8.13745 0.90744 8.13409 0.911499 8.13068 0.915527C8.12665 0.920319 8.12262 0.92511 8.11719 0.928497C6.16028 2.18176 4.99194 4.29926 4.99194 6.59174C4.99194 10.1685 8.5033 13.306 12.5055 13.306C12.5135 13.306 12.5207 13.3105 12.528 13.311C12.5612 13.3123 12.5919 13.3209 12.6234 13.3297L12.6343 13.3328C12.6625 13.3408 12.6902 13.345 12.7159 13.358C12.7369 13.3678 12.755 13.3817 12.7736 13.3959C12.7792 13.4002 12.7848 13.4045 12.7905 13.4088L12.7953 13.4122C12.8219 13.4318 12.8487 13.4515 12.8705 13.4765C12.8733 13.4794 12.8763 13.4815 12.8794 13.4837C12.8828 13.4861 12.8862 13.4885 12.8891 13.4918C12.8967 13.5016 12.9014 13.5126 12.906 13.5235C12.9096 13.5319 12.9131 13.5402 12.918 13.548L12.9202 13.5515C12.9386 13.5813 12.9562 13.6098 12.9678 13.6435ZM6.18329 1.22675C3.20471 1.99023 0.989746 4.733 0.989746 8.00024C0.989746 11.8555 4.06989 14.9918 7.85547 14.9915C8.97278 14.9915 10.0699 14.7062 11.0494 14.1823C7.15833 13.5137 4.0022 10.2567 4.0022 6.59174C4.0022 4.56149 4.79694 2.655 6.18329 1.22675Z" fill="#7D97B3"/>
</svg>
