<svg width="16" height="16" viewBox="0 0 16 16" fill="none" xmlns="http://www.w3.org/2000/svg">
<path fill-rule="evenodd" clip-rule="evenodd" d="M14.5993 0C14.9897 0 15.3262 0.123108 15.597 0.391022C16.0118 0.801147 16.0762 1.42578 15.9266 1.95526C15.8505 2.22522 15.7393 2.49612 15.5883 2.77219C15.288 3.32178 14.9897 3.68478 14.7207 3.95419L13.1591 5.51868L15.3106 13.0712C15.3621 13.2516 15.3106 13.4014 15.1805 13.5317L13.9398 14.7746C13.8267 14.8879 13.6975 14.9442 13.532 14.9224C13.3677 14.9007 13.2544 14.8182 13.1763 14.6704L10.0096 8.67346L6.90347 11.7849L6.81668 14.2966C6.81277 14.4095 6.76465 14.5226 6.66913 14.6181L5.42847 15.8609C5.33313 15.9566 5.22021 16 5.09012 16H5.00348C4.8212 15.9566 4.71106 15.8568 4.64777 15.7046L3.37228 12.6367L0.309723 11.359C0.144806 11.3069 0.0493164 11.1852 0.00598145 11.0028C-0.0201111 10.8202 0.040802 10.6906 0.153534 10.5769L1.3942 9.32541C1.48935 9.22934 1.59372 9.19061 1.71515 9.18631L4.2226 9.09937L7.32864 5.97928L1.34219 2.8158C1.19449 2.73776 1.11215 2.62411 1.09045 2.45944C1.06882 2.2937 1.10748 2.16351 1.22058 2.05099L2.47864 0.7995C2.60062 0.678192 2.7583 0.626312 2.9386 0.677826L10.478 2.83325C10.7298 2.56384 11.0421 2.25085 11.4152 1.87711C11.7881 1.50348 12.0051 1.29489 12.0745 1.2341H12.0919C12.4476 0.921143 12.8543 0.632446 13.3065 0.382324C13.7653 0.128479 14.1916 0 14.5993 0ZM12.2914 5.04077L14.044 3.2764C14.3513 2.96713 15.3975 1.55557 14.9029 1.06888C14.8596 0.999329 14.7554 0.964661 14.5993 0.964661C14.1568 0.964661 13.4453 1.33823 12.7166 1.96402L12.6818 1.98148L12.3869 2.27701L11.7015 2.95486L10.9552 3.70227C10.8079 3.85004 10.6644 3.88062 10.4955 3.83261L2.95584 1.69464L2.37463 2.27704L8.34372 5.44919C8.49124 5.52744 8.57806 5.64032 8.59546 5.78812C8.63007 5.95331 8.58676 6.09235 8.46515 6.21399L4.7692 9.91629C4.69983 9.98584 4.59579 10.0294 4.44827 10.0553L1.94949 10.151L1.34219 10.7506L3.91888 11.8197C4.05157 11.8748 4.13583 11.9674 4.17062 12.0891L5.25507 14.6704L5.85364 14.0619L5.94046 11.5503C5.96655 11.42 6.00989 11.3156 6.08798 11.2374L9.78394 7.53506C9.90555 7.41324 10.0444 7.36987 10.2091 7.40472C10.3566 7.42197 10.4695 7.50891 10.5474 7.65671L13.7057 13.6362L14.2956 13.0538L12.1613 5.50131C12.1133 5.33203 12.1443 5.1889 12.2914 5.04077Z" fill="#7D97B3"/>
</svg>
