<svg width="11" height="16" viewBox="0 0 11 16" fill="none" xmlns="http://www.w3.org/2000/svg">
<path fill-rule="evenodd" clip-rule="evenodd" d="M0 5.625C0 2.52338 2.4673 0 5.5 0C8.5327 0 11 2.52338 11 5.625C11 6.64185 10.7318 7.63837 10.2242 8.50687L5.96957 15.7721C5.88747 15.9124 5.73983 15.9987 5.57999 16H5.57635C5.4179 16 5.27056 15.9163 5.18693 15.7784L0.820999 8.58289C0.283829 7.69562 0 6.67294 0 5.625ZM5.56942 14.6308L9.43757 8.02554C9.85994 7.30273 10.0864 6.47253 10.0864 5.625C10.0864 3.04031 8.02724 0.931244 5.5 0.931244C2.97275 0.931244 0.910553 3.04031 0.910553 5.625C0.910553 6.49844 1.15298 7.35043 1.6001 8.08893L5.56942 14.6308ZM5.5 2.8125C3.98365 2.8125 2.75 4.07419 2.75 5.625C2.75 7.16589 3.96358 8.4375 5.5 8.4375C7.05537 8.4375 8.25 7.14896 8.25 5.625C8.25 4.07419 7.01635 2.8125 5.5 2.8125ZM3.66055 5.625C3.66055 6.66147 4.48381 7.50626 5.5 7.50626C6.53229 7.50626 7.33639 6.64633 7.33639 5.625C7.33639 4.59113 6.51089 3.74374 5.5 3.74374C4.4891 3.74374 3.66055 4.59113 3.66055 5.625Z" fill="#7D97B3"/>
</svg>
